<svg width="24" height="24" viewBox="0 0 24 24" fill="none" xmlns="http://www.w3.org/2000/svg">
<path d="M10.4693 5.30448C11.2002 5.00173 12.0044 4.92252 12.7804 5.07686C13.5563 5.2312 14.269 5.61217 14.8284 6.17158C15.3878 6.73099 15.7688 7.44372 15.9231 8.21964C16.0775 8.99557 15.9983 9.79983 15.6955 10.5307C15.3928 11.2616 14.8801 11.8864 14.2223 12.3259C13.5129 12.7999 12.728 13.4025 12.1134 14.1401C11.4951 14.8823 11 15.8225 11 16.9452V17H13V16.9452C13 16.4414 13.2176 15.9394 13.6501 15.4203C14.0863 14.8966 14.6903 14.4185 15.3334 13.9888C16.3201 13.3295 17.0892 12.3925 17.5433 11.2961C17.9974 10.1997 18.1162 8.99335 17.8847 7.82946C17.6532 6.66558 17.0818 5.59648 16.2426 4.75736C15.4035 3.91825 14.3344 3.3468 13.1705 3.11529C12.0067 2.88378 10.8003 3.0026 9.7039 3.45673C8.60754 3.91085 7.67047 4.67989 7.01118 5.66658C6.35189 6.65328 6 7.81331 6 9H8C8 8.20888 8.2346 7.43552 8.67412 6.77772C9.11365 6.11992 9.73836 5.60723 10.4693 5.30448Z" fill="#897DF7"/>
<path d="M12 19C11.4477 19 11 19.4477 11 20C11 20.5523 11.4477 21 12 21C12.5523 21 13 20.5523 13 20C13 19.4477 12.5523 19 12 19Z" fill="#897DF7"/>
<path d="M10.4693 5.30448C11.2002 5.00173 12.0044 4.92252 12.7804 5.07686C13.5563 5.2312 14.269 5.61217 14.8284 6.17158C15.3878 6.73099 15.7688 7.44372 15.9231 8.21964C16.0775 8.99557 15.9983 9.79983 15.6955 10.5307C15.3928 11.2616 14.8801 11.8864 14.2223 12.3259C13.5129 12.7999 12.728 13.4025 12.1134 14.1401C11.4951 14.8823 11 15.8225 11 16.9452V17H13V16.9452C13 16.4414 13.2176 15.9394 13.6501 15.4203C14.0863 14.8966 14.6903 14.4185 15.3334 13.9888C16.3201 13.3295 17.0892 12.3925 17.5433 11.2961C17.9974 10.1997 18.1162 8.99335 17.8847 7.82946C17.6532 6.66558 17.0818 5.59648 16.2426 4.75736C15.4035 3.91825 14.3344 3.3468 13.1705 3.11529C12.0067 2.88378 10.8003 3.0026 9.7039 3.45673C8.60754 3.91085 7.67047 4.67989 7.01118 5.66658C6.35189 6.65328 6 7.81331 6 9H8C8 8.20888 8.2346 7.43552 8.67412 6.77772C9.11365 6.11992 9.73836 5.60723 10.4693 5.30448Z" stroke="#897DF7" stroke-width="2" stroke-linejoin="round"/>
<path d="M12 19C11.4477 19 11 19.4477 11 20C11 20.5523 11.4477 21 12 21C12.5523 21 13 20.5523 13 20C13 19.4477 12.5523 19 12 19Z" stroke="#897DF7" stroke-width="2" stroke-linejoin="round"/>
</svg>
