<svg width="24" height="24" viewBox="0 0 24 24" fill="none" xmlns="http://www.w3.org/2000/svg">
<path d="M4.06647 5.91246C5.40656 4.16602 7.28548 2.91057 9.41181 2.34082L9.92945 4.27267C8.22838 4.72847 6.72525 5.73283 5.65317 7.12999C4.78548 8.26078 4.23941 9.59774 4.06273 11.0001L22 11.0001V13.0001L4.06273 13.0001C4.23941 14.4024 4.78548 15.7394 5.65317 16.8702C6.72525 18.2673 8.22838 19.2717 9.92945 19.7275L9.41181 21.6593C7.28548 21.0896 5.40656 19.8341 4.06647 18.0877C2.72637 16.3413 2 14.2014 2 12.0001C2 9.79874 2.72637 7.65891 4.06647 5.91246Z" fill="#2A293B"/>
</svg>
