<svg width="104" height="104" viewBox="0 0 104 104" fill="none" xmlns="http://www.w3.org/2000/svg">
<g clip-path="url(#clip0_112_2627)">
<path d="M71.979 47.9158L73.5461 79.204L51.0075 69.9958L71.979 47.9158Z" fill="#F79329"/>
<path d="M73.3439 79.9611C73.3118 79.9526 73.2797 79.944 73.2493 79.9291L50.7043 70.7192C50.4624 70.6208 50.2914 70.4106 50.2354 70.1553C50.1794 69.9 50.2556 69.6386 50.429 69.4509L71.4068 47.3726C71.6242 47.1485 71.9603 47.0727 72.2488 47.1766C72.5437 47.2822 72.746 47.5557 72.7593 47.8684L74.3103 78.9325C74.3678 79.0783 74.3784 79.2459 74.3358 79.4064C74.2253 79.8236 73.7949 80.0737 73.3777 79.9631C73.376 79.9696 73.3567 79.9645 73.3439 79.9611ZM52.3551 69.7003L72.6996 78.011L71.2908 49.7806L52.3551 69.7003ZM41.6341 29.2471C41.3878 30.1766 40.7823 30.9702 39.9509 31.4533C39.1194 31.9364 38.1301 32.0695 37.2006 31.8231C35.2684 31.3111 34.1125 29.3217 34.6245 27.3896C35.1382 25.451 37.1195 24.2998 39.058 24.8135C40.9966 25.3272 42.1478 27.3085 41.6341 29.2471Z" fill="#F79329"/>
<path d="M37.0024 32.5739C35.8729 32.2728 34.9089 31.5362 34.3217 30.5255C33.7344 29.5148 33.5719 28.3125 33.8696 27.1822C34.1707 26.0527 34.9073 25.0887 35.918 24.5015C36.9287 23.9142 38.1309 23.7517 39.2613 24.0494C40.3907 24.3505 41.3547 25.0871 41.942 26.0978C42.5292 27.1085 42.6918 28.3108 42.3941 29.4411C42.093 30.5706 41.3564 31.5346 40.3457 32.1218C39.335 32.709 38.1327 32.8716 37.0024 32.5739ZM38.8582 25.5707C37.3433 25.1693 35.7842 26.0751 35.3828 27.59C34.9813 29.1049 35.8872 30.664 37.4021 31.0654C38.917 31.4669 40.4825 30.5627 40.8839 29.0478C41.2853 27.5329 40.3731 25.9721 38.8582 25.5707ZM76.8351 34.8236C78.7367 35.4511 79.7725 37.5049 79.1449 39.4064C78.5238 41.3096 76.4653 42.3373 74.5685 41.7179C74.1158 41.5699 73.6967 41.334 73.3353 41.0237C72.974 40.7134 72.6774 40.3348 72.4627 39.9096C72.2479 39.4844 72.1192 39.0211 72.0839 38.5461C72.0486 38.071 72.1074 37.5937 72.257 37.1415C72.8863 35.2336 74.9336 34.196 76.8351 34.8236Z" fill="#F79329"/>
<path d="M74.5729 42.5313L74.3242 42.4585C73.2051 42.0933 72.2931 41.3089 71.7666 40.2626C71.5045 39.7461 71.3469 39.183 71.3031 38.6054C71.2592 38.0279 71.3299 37.4474 71.5111 36.8973C71.8635 35.8295 72.6102 34.9365 73.5987 34.4005C74.5871 33.8645 75.7429 33.726 76.8301 34.0132L77.0787 34.0859C79.3907 34.8497 80.6505 37.3544 79.8884 39.66C79.5344 40.7253 78.7874 41.6155 77.7997 42.149C76.8119 42.6826 75.6579 42.8193 74.5729 42.5313ZM76.578 35.5608C74.9732 35.1355 73.4718 35.9536 73.0039 37.3822C72.765 38.1021 72.8219 38.8728 73.1634 39.5541C73.505 40.2355 74.0875 40.7333 74.8138 40.9739L74.9726 41.0228C76.4233 41.4072 77.9312 40.5908 78.399 39.1622C78.8903 37.6711 78.0738 36.0602 76.5844 35.5625L76.578 35.5608ZM36.5896 38.539L19.7404 64.9471L43.8813 68.1085L36.5896 38.539Z" fill="#F79329"/>
<path d="M19.538 65.7025C19.3198 65.6447 19.127 65.4906 19.0253 65.2781C18.9112 65.0349 18.9313 64.7517 19.0729 64.5282L35.9221 38.1201C36.0885 37.8551 36.3997 37.7177 36.7082 37.772C37.0441 37.8266 37.2665 38.0504 37.3427 38.3591L44.6344 67.9287C44.6921 68.1775 44.6288 68.4424 44.4537 68.6365C44.285 68.8322 44.0277 68.922 43.7671 68.8942L19.6262 65.7328C19.6022 65.7196 19.5701 65.711 19.538 65.7025ZM36.2672 40.4992L21.0553 64.3322L42.8456 67.1867L36.2672 40.4992Z" fill="#F79329"/>
<path d="M63.2046 30.7366C62.4374 33.6316 59.4655 35.3585 56.5705 34.5913C53.6755 33.8242 51.9422 30.8505 52.7094 27.9555C53.4782 25.0541 56.4485 23.3337 59.3499 24.1025C62.2513 24.8714 63.9734 27.8352 63.2046 30.7366ZM24.4657 24.6962C23.8567 26.9942 21.5019 28.3624 19.1974 27.7518C16.8994 27.1428 15.5312 24.788 16.1401 22.49C16.7508 20.1855 19.1056 18.8173 21.4036 19.4262C23.7081 20.0369 25.0763 22.3917 24.4657 24.6962ZM89.3561 41.8915C88.7471 44.1895 90.1154 46.5443 92.4198 47.155C94.7179 47.7639 97.0791 46.3974 97.6881 44.0993C97.9808 42.9945 97.8227 41.8185 97.2485 40.8302C96.6742 39.8419 95.7309 39.1222 94.626 38.8294C93.5211 38.5366 92.3452 38.6948 91.3569 39.269C90.3686 39.8432 89.6489 40.7866 89.3561 41.8915Z" fill="#FCC21B"/>
<path d="M63.2046 30.7366C62.4374 33.6316 59.4655 35.3585 56.5705 34.5913C53.6755 33.8242 51.9422 30.8505 52.7094 27.9555C53.4782 25.0541 56.4485 23.3337 59.3499 24.1025C62.2513 24.8714 63.9734 27.8352 63.2046 30.7366ZM24.4657 24.6962C23.8567 26.9942 21.5019 28.3624 19.1974 27.7518C16.8994 27.1428 15.5312 24.788 16.1401 22.49C16.7508 20.1855 19.1056 18.8173 21.4036 19.4262C23.7081 20.0369 25.0763 22.3917 24.4657 24.6962ZM89.3561 41.8915C88.7471 44.1895 90.1154 46.5443 92.4198 47.155C94.7179 47.7639 97.0791 46.3974 97.6881 44.0993C97.9808 42.9945 97.8227 41.8185 97.2485 40.8302C96.6742 39.8419 95.7309 39.1222 94.626 38.8294C93.5211 38.5366 92.3452 38.6948 91.3569 39.269C90.3686 39.8432 89.6489 40.7866 89.3561 41.8915Z" fill="#FCC21B"/>
<path d="M89.3913 54.6229C89.2709 54.526 89.1244 54.4668 88.9704 54.4529C88.8164 54.439 88.6617 54.4709 88.5259 54.5447L63.7093 67.9323L55.1412 42.9983C55.0561 42.749 54.8573 42.5658 54.6005 42.4978C54.3502 42.4315 54.0804 42.4905 53.8847 42.6585L34.0275 60.0669L19.1053 36.1421C19.0238 36.0107 18.9052 35.9063 18.7645 35.8421C18.6238 35.778 18.4673 35.7569 18.3146 35.7815C18.0063 35.8303 17.7517 36.0651 17.6846 36.3702L10.4167 67.0897C8.65958 73.7206 22.7261 83.0126 42.4455 88.2381C62.1649 93.4635 78.987 92.3566 80.739 85.745L89.6424 55.4383C89.7335 55.1464 89.635 54.8181 89.3913 54.6229Z" fill="#FCC21B"/>
<mask id="mask0_112_2627" style="mask-type:luminance" maskUnits="userSpaceOnUse" x="10" y="35" width="80" height="57">
<path d="M89.3923 54.6229C89.2719 54.526 89.1254 54.4668 88.9714 54.4529C88.8174 54.439 88.6627 54.4709 88.5268 54.5447L63.7103 67.9323L55.1421 42.9983C55.057 42.749 54.8583 42.5658 54.6015 42.4978C54.3512 42.4315 54.0813 42.4905 53.8857 42.6585L34.0285 60.0669L19.1062 36.1421C19.0247 36.0107 18.9062 35.9063 18.7655 35.8421C18.6248 35.778 18.4683 35.7569 18.3156 35.7815C18.0072 35.8303 17.7527 36.0651 17.6856 36.3702L10.4177 67.0897C8.66056 73.7206 22.7271 83.0126 42.4465 88.2381C62.1659 93.4635 78.988 92.3566 80.74 85.745L89.6434 55.4383C89.7345 55.1464 89.636 54.8181 89.3923 54.6229Z" fill="white"/>
</mask>
<g mask="url(#mask0_112_2627)">
<path d="M85.4656 70.5028L85.4703 70.511L81.8852 82.5106L81.8788 82.5089C79.2049 81.711 77.8471 78.3834 78.8361 75.0663C79.8267 71.7428 82.7917 69.705 85.4656 70.5028ZM13.8672 51.53L13.8591 51.5347L11.0251 63.7333L11.0379 63.7367C13.7496 64.366 16.5835 62.1492 17.3606 58.7759C18.1458 55.398 16.5789 52.1593 13.8672 51.53Z" fill="#D7598B"/>
</g>
<path d="M52.0796 74.3604C51.1305 77.9422 47.8693 80.1901 44.7946 79.3753C41.7262 78.5622 40.0062 74.9944 40.9553 71.4125C41.9062 67.8243 45.1656 65.5828 48.234 66.3959C51.3104 67.2043 53.0305 70.7721 52.0796 74.3604Z" fill="#D7598B"/>
<path d="M62.1071 80.8583C61.5644 82.5694 59.9315 83.5725 58.461 83.1072C56.9969 82.6437 56.2503 80.8727 56.7977 79.1697C57.3485 77.454 58.9814 76.4509 60.4438 76.9209C61.9096 77.378 62.6498 79.1473 62.1071 80.8583Z" fill="#ED6C30"/>
<path d="M73.7381 81.9046C74.2872 80.1973 73.5435 78.431 72.0772 77.9594C70.6108 77.4878 68.9769 78.4895 68.4278 80.1968C67.8787 81.9041 68.6223 83.6704 70.0887 84.142C71.5551 84.6136 73.189 83.6119 73.7381 81.9046Z" fill="#ED6C30"/>
<path d="M29.0265 72.0892C28.6507 73.8444 29.5726 75.5245 31.0805 75.8485C32.5821 76.1709 34.1078 75.002 34.4755 73.2514C34.853 71.4897 33.9311 69.8097 32.4279 69.4938C30.9216 69.1633 29.3959 70.3322 29.0265 72.0892Z" fill="#ED6C30"/>
<path d="M20.4683 70.9862C21.9722 71.3019 23.49 70.135 23.8584 68.3798C24.2268 66.6246 23.3063 64.9459 21.8024 64.6302C20.2985 64.3145 18.7807 65.4814 18.4123 67.2366C18.0438 68.9918 18.9643 70.6705 20.4683 70.9862Z" fill="#ED6C30"/>
</g>
<defs>
<clipPath id="clip0_112_2627">
<rect width="85" height="85" fill="white" transform="translate(21.7727) rotate(14.8417)"/>
</clipPath>
</defs>
</svg>
