<svg width="18" height="18" viewBox="0 0 18 18" fill="none" xmlns="http://www.w3.org/2000/svg">
<path d="M7.63794 2.20279C8.17406 1.04048 9.82599 1.04048 10.3621 2.20279L11.6108 4.90991C11.8293 5.38362 12.2782 5.70978 12.7963 5.7712L15.7567 6.12222C17.0278 6.27292 17.5383 7.844 16.5986 8.71306L14.4098 10.7372C14.0268 11.0914 13.8553 11.6191 13.957 12.1308L14.538 15.0548C14.7874 16.3103 13.451 17.2813 12.3341 16.6561L9.73269 15.1999C9.27747 14.9451 8.72257 14.9451 8.26736 15.1999L5.66596 16.6561C4.54904 17.2813 3.2126 16.3103 3.46205 15.0548L4.04306 12.1308C4.14473 11.6191 3.97326 11.0914 3.59025 10.7372L1.40149 8.71306C0.461739 7.844 0.972213 6.27292 2.2433 6.12222L5.20379 5.7712C5.72184 5.70978 6.17076 5.38362 6.38926 4.90991L7.63794 2.20279Z" fill="#F2B700" stroke="#F2B700" stroke-width="1.5" stroke-linejoin="round"/>
</svg>
